<svg width="657" height="543" viewBox="0 0 657 543" fill="none" xmlns="http://www.w3.org/2000/svg">
<path d="M591.659 113.202C591.809 111.994 591.93 111.873 593.169 111.692C591.961 111.54 591.84 111.42 591.659 110.181C591.507 111.39 591.386 111.51 590.148 111.692C591.356 111.843 591.477 111.994 591.659 113.202Z" fill="white" fill-opacity="0.1"/>
<path d="M579.063 247.025C579.214 245.816 579.335 245.696 580.574 245.514C579.365 245.363 579.244 245.243 579.063 244.004C578.912 245.212 578.791 245.333 577.552 245.514C578.76 245.665 578.881 245.816 579.063 247.025Z" fill="white" fill-opacity="0.1"/>
<path d="M414.231 155.139C414.382 153.931 414.503 153.81 415.742 153.629C414.533 153.478 414.412 153.357 414.231 152.119C414.08 153.327 413.959 153.448 412.72 153.629C413.929 153.78 414.05 153.931 414.231 155.139Z" fill="white" fill-opacity="0.1"/>
<path d="M502.944 59.1957C503.095 57.9876 503.216 57.8668 504.455 57.6855C503.246 57.5344 503.125 57.4136 502.944 56.1753C502.793 57.3835 502.672 57.5042 501.433 57.6855C502.641 57.8364 502.762 57.9876 502.944 59.1957Z" fill="white" fill-opacity="0.1"/>
<path d="M522.152 105.203C522.152 105.82 522.653 106.32 523.27 106.32C523.888 106.32 524.388 105.82 524.388 105.203C524.388 104.585 523.888 104.085 523.27 104.085C522.653 104.085 522.152 104.585 522.152 105.203Z" fill="white" fill-opacity="0.1"/>
<path d="M356.061 213.067C356.061 213.685 356.561 214.185 357.179 214.185C357.796 214.185 358.297 213.685 358.297 213.067C358.297 212.45 357.796 211.95 357.179 211.95C356.561 211.95 356.061 212.45 356.061 213.067Z" fill="white" fill-opacity="0.1"/>
<path d="M612.773 137.607C612.773 138.224 613.274 138.725 613.892 138.725C614.509 138.725 615.01 138.224 615.01 137.607C615.01 136.99 614.509 136.49 613.892 136.49C613.274 136.49 612.773 136.99 612.773 137.607Z" fill="white" fill-opacity="0.1"/>
<path d="M401.594 55.1175C401.594 55.7346 402.095 56.235 402.713 56.235C403.33 56.235 403.831 55.7346 403.831 55.1175C403.831 54.5002 403.33 54 402.713 54C402.095 54 401.594 54.5002 401.594 55.1175Z" fill="white" fill-opacity="0.1"/>
<path d="M639.406 180.886C639.406 181.503 639.907 182.003 640.525 182.003C641.142 182.003 641.643 181.503 641.643 180.886C641.643 180.269 641.142 179.768 640.525 179.768C639.907 179.768 639.406 180.269 639.406 180.886Z" fill="white" fill-opacity="0.1"/>
<path d="M604.618 270.133C604.618 270.751 605.118 271.251 605.736 271.251C606.353 271.251 606.854 270.751 606.854 270.133C606.854 269.516 606.353 269.016 605.736 269.016C605.118 269.016 604.618 269.516 604.618 270.133Z" fill="white" fill-opacity="0.1"/>
<path d="M584.599 161.651C584.599 162.268 585.099 162.769 585.717 162.769C586.335 162.769 586.835 162.268 586.835 161.651C586.835 161.034 586.335 160.534 585.717 160.534C585.099 160.534 584.599 161.034 584.599 161.651Z" fill="white" fill-opacity="0.1"/>
<path d="M600.275 205.136C601.282 205.582 602.46 205.127 602.906 204.12C603.352 203.114 602.897 201.936 601.889 201.49C600.882 201.045 599.704 201.499 599.258 202.506C598.812 203.513 599.268 204.69 600.275 205.136Z" fill="white" fill-opacity="0.15"/>
<path d="M453.571 199.59C453.571 200.691 454.464 201.584 455.565 201.584C456.667 201.584 457.56 200.691 457.56 199.59C457.56 198.489 456.667 197.597 455.565 197.597C454.464 197.597 453.571 198.489 453.571 199.59Z" fill="white" fill-opacity="0.15"/>
<path d="M519.71 166.624C520.489 167.402 521.752 167.402 522.531 166.624C523.31 165.845 523.31 164.583 522.531 163.805C521.752 163.026 520.489 163.026 519.71 163.805C518.931 164.583 518.931 165.845 519.71 166.624Z" fill="white" fill-opacity="0.15"/>
<path d="M591.627 63.9969C591.627 64.614 592.128 65.1145 592.745 65.1145C593.363 65.1145 593.863 64.614 593.863 63.9969C593.863 63.3796 593.363 62.8794 592.745 62.8794C592.128 62.8794 591.627 63.3796 591.627 63.9969Z" fill="white" fill-opacity="0.15"/>
<path d="M469.251 95.068C469.251 95.6851 469.752 96.1856 470.369 96.1856C470.987 96.1856 471.487 95.6851 471.487 95.068C471.487 94.4507 470.987 93.9505 470.369 93.9505C469.752 93.9505 469.251 94.4507 469.251 95.068Z" fill="white" fill-opacity="0.15"/>
<path d="M457.673 269.061C457.825 267.852 457.945 267.732 459.184 267.55C457.976 267.399 457.855 267.278 457.673 266.04C457.522 267.248 457.402 267.369 456.163 267.55C457.371 267.701 457.492 267.852 457.673 269.061Z" fill="white" fill-opacity="0.1"/>
<path d="M370.149 126.148C370.3 124.94 370.42 124.819 371.659 124.638C370.451 124.487 370.33 124.366 370.149 123.128C369.997 124.336 369.877 124.456 368.638 124.638C369.846 124.789 369.967 124.94 370.149 126.148Z" fill="white" fill-opacity="0.1"/>
<path d="M314.51 178.768C314.661 177.56 314.782 177.439 316.021 177.258C314.812 177.107 314.692 176.986 314.51 175.747C314.359 176.956 314.238 177.076 312.999 177.258C314.208 177.409 314.329 177.56 314.51 178.768Z" fill="white" fill-opacity="0.1"/>
<path d="M316.657 433.117C316.808 434.325 316.929 434.446 318.167 434.627C316.959 434.778 316.838 434.899 316.657 436.137C316.505 434.929 316.384 434.808 315.146 434.627C316.354 434.476 316.475 434.325 316.657 433.117Z" fill="white" fill-opacity="0.1"/>
<path d="M400.3 290.957C400.451 292.165 400.572 292.286 401.811 292.467C400.603 292.618 400.482 292.739 400.3 293.977C400.149 292.769 400.028 292.648 398.789 292.467C399.998 292.316 400.119 292.165 400.3 290.957Z" fill="white" fill-opacity="0.1"/>
<path d="M304.061 299.294C304.212 300.502 304.333 300.623 305.572 300.804C304.363 300.956 304.242 301.076 304.061 302.315C303.91 301.106 303.789 300.986 302.55 300.804C303.759 300.653 303.879 300.502 304.061 299.294Z" fill="white" fill-opacity="0.1"/>
<path d="M104.764 233C104.915 234.208 105.036 234.329 106.275 234.51C105.066 234.661 104.945 234.782 104.764 236.02C104.613 234.812 104.492 234.691 103.253 234.51C104.462 234.359 104.583 234.208 104.764 233Z" fill="white" fill-opacity="0.1"/>
<path d="M227.942 487.123C228.093 488.331 228.214 488.452 229.453 488.633C228.244 488.784 228.123 488.905 227.942 490.144C227.791 488.935 227.67 488.815 226.431 488.633C227.64 488.482 227.76 488.331 227.942 487.123Z" fill="white" fill-opacity="0.1"/>
<path d="M247.15 441.116C247.15 440.499 247.651 439.999 248.269 439.999C248.886 439.999 249.387 440.499 249.387 441.116C249.387 441.733 248.886 442.234 248.269 442.234C247.651 442.234 247.15 441.733 247.15 441.116Z" fill="white" fill-opacity="0.1"/>
<path d="M81.059 333.251C81.059 332.634 81.5594 332.134 82.177 332.134C82.7946 332.134 83.2951 332.634 83.2951 333.251C83.2951 333.869 82.7946 334.369 82.177 334.369C81.5594 334.369 81.059 333.869 81.059 333.251Z" fill="white" fill-opacity="0.1"/>
<path d="M337.772 408.712C337.772 408.095 338.272 407.594 338.89 407.594C339.507 407.594 340.008 408.095 340.008 408.712C340.008 409.329 339.507 409.829 338.89 409.829C338.272 409.829 337.772 409.329 337.772 408.712Z" fill="white" fill-opacity="0.1"/>
<path d="M126.593 491.201C126.593 490.584 127.093 490.084 127.711 490.084C128.328 490.084 128.829 490.584 128.829 491.201C128.829 491.819 128.328 492.319 127.711 492.319C127.093 492.319 126.593 491.819 126.593 491.201Z" fill="white" fill-opacity="0.1"/>
<path d="M364.405 365.433C364.405 364.816 364.905 364.315 365.523 364.315C366.14 364.315 366.641 364.816 366.641 365.433C366.641 366.05 366.14 366.55 365.523 366.55C364.905 366.55 364.405 366.05 364.405 365.433Z" fill="white" fill-opacity="0.1"/>
<path d="M329.616 276.185C329.616 275.568 330.116 275.068 330.734 275.068C331.351 275.068 331.852 275.568 331.852 276.185C331.852 276.803 331.351 277.303 330.734 277.303C330.116 277.303 329.616 276.803 329.616 276.185Z" fill="white" fill-opacity="0.1"/>
<path d="M309.597 384.668C309.597 384.05 310.098 383.55 310.715 383.55C311.333 383.55 311.833 384.05 311.833 384.668C311.833 385.285 311.333 385.785 310.715 385.785C310.098 385.785 309.597 385.285 309.597 384.668Z" fill="white" fill-opacity="0.1"/>
<path d="M325.273 341.183C326.28 340.737 327.458 341.192 327.904 342.199C328.35 343.205 327.895 344.383 326.887 344.828C325.88 345.274 324.702 344.819 324.256 343.812C323.81 342.806 324.266 341.629 325.273 341.183Z" fill="white" fill-opacity="0.15"/>
<path d="M178.569 346.728C178.569 345.627 179.462 344.735 180.563 344.735C181.665 344.735 182.558 345.627 182.558 346.728C182.558 347.829 181.665 348.722 180.563 348.722C179.462 348.722 178.569 347.829 178.569 346.728Z" fill="white" fill-opacity="0.15"/>
<path d="M244.708 379.695C245.487 378.917 246.75 378.917 247.529 379.695C248.308 380.474 248.308 381.736 247.529 382.514C246.75 383.293 245.487 383.293 244.708 382.514C243.93 381.736 243.93 380.474 244.708 379.695Z" fill="white" fill-opacity="0.15"/>
<path d="M316.625 482.322C316.625 481.705 317.126 481.204 317.743 481.204C318.361 481.204 318.861 481.705 318.861 482.322C318.861 482.939 318.361 483.439 317.743 483.439C317.126 483.439 316.625 482.939 316.625 482.322Z" fill="white" fill-opacity="0.15"/>
<path d="M194.249 451.251C194.249 450.634 194.75 450.133 195.367 450.133C195.985 450.133 196.485 450.634 196.485 451.251C196.485 451.868 195.985 452.368 195.367 452.368C194.75 452.368 194.249 451.868 194.249 451.251Z" fill="white" fill-opacity="0.15"/>
<path d="M182.672 277.258C182.823 278.466 182.944 278.587 184.183 278.769C182.974 278.92 182.853 279.04 182.672 280.279C182.521 279.071 182.4 278.95 181.161 278.769C182.369 278.618 182.49 278.466 182.672 277.258Z" fill="white" fill-opacity="0.1"/>
<path d="M95.1466 420.171C95.2977 421.379 95.4186 421.5 96.6576 421.681C95.4488 421.832 95.3279 421.953 95.1466 423.191C94.9955 421.983 94.8747 421.862 93.6357 421.681C94.8444 421.53 94.9653 421.379 95.1466 420.171Z" fill="white" fill-opacity="0.1"/>
<path d="M41.5107 267.031C41.6618 268.239 41.7827 268.36 43.0217 268.541C41.8129 268.692 41.692 268.813 41.5107 270.051C41.3596 268.843 41.2387 268.723 39.9997 268.541C41.2085 268.39 41.3294 268.239 41.5107 267.031Z" fill="white" fill-opacity="0.1"/>
</svg>
